<svg width="24" height="24" viewBox="0 0 24 24" fill="none" xmlns="http://www.w3.org/2000/svg">
<path d="M12 3.83333C14.6667 3.83333 15 3.83333 16.0833 3.91667C18.8333 4 20.0833 5.33333 20.1667 8C20.25 9.08333 20.25 9.33333 20.25 12C20.25 14.6667 20.25 15 20.1667 16C20.0833 18.6667 18.75 20 16.0833 20.0833C15 20.1667 14.75 20.1667 12 20.1667C9.33333 20.1667 9 20.1667 8 20.0833C5.25 20 4 18.6667 3.91667 16C3.83333 14.9167 3.83333 14.6667 3.83333 12C3.83333 9.33333 3.83333 9 3.91667 8C4 5.33333 5.33333 4 8 3.91667C9 3.83333 9.33333 3.83333 12 3.83333ZM12 2C9.25 2 8.91667 2 7.91667 2.08333C4.25 2.25 2.25 4.25 2.08333 7.91667C2 8.91667 2 9.25 2 12C2 14.75 2 15.0833 2.08333 16.0833C2.25 19.75 4.25 21.75 7.91667 21.9167C8.91667 22 9.25 22 12 22C14.75 22 15.0833 22 16.0833 21.9167C19.75 21.75 21.75 19.75 21.9167 16.0833C22 15.0833 22 14.75 22 12C22 9.25 22 8.91667 21.9167 7.91667C21.75 4.25 19.75 2.25 16.0833 2.08333C15.0833 2 14.75 2 12 2ZM12 6.83333C9.16667 6.83333 6.83333 9.16667 6.83333 12C6.83333 14.8333 9.16667 17.1667 12 17.1667C14.8333 17.1667 17.1667 14.8333 17.1667 12C17.1667 9.16667 14.8333 6.83333 12 6.83333ZM12 15.3333C10.1667 15.3333 8.66667 13.8333 8.66667 12C8.66667 10.1667 10.1667 8.66667 12 8.66667C13.8333 8.66667 15.3333 10.1667 15.3333 12C15.3333 13.8333 13.8333 15.3333 12 15.3333ZM17.3333 5.5C16.6667 5.5 16.1667 6 16.1667 6.66667C16.1667 7.33333 16.6667 7.83333 17.3333 7.83333C18 7.83333 18.5 7.33333 18.5 6.66667C18.5 6 18 5.5 17.3333 5.5Z" fill="#333333"/>
</svg>
