<svg width="24" height="24" viewBox="0 0 24 24" fill="none" xmlns="http://www.w3.org/2000/svg">
<path fill-rule="evenodd" clip-rule="evenodd" d="M4.49515 2.13679C4.80182 1.95744 5.18062 1.95425 5.49026 2.12842L21.4903 11.1284C21.8051 11.3055 22 11.6387 22 12C22 12.3613 21.8051 12.6945 21.4903 12.8716L5.49026 21.8716C5.18062 22.0457 4.80182 22.0426 4.49515 21.8632C4.18849 21.6839 4 21.3553 4 21V3C4 2.64474 4.18849 2.31614 4.49515 2.13679Z" fill="#333333"/>
<path d="M4.49515 2.13679L4.11652 1.48938L4.11652 1.48938L4.49515 2.13679ZM5.49026 2.12842L5.12257 2.78211L5.12257 2.78211L5.49026 2.12842ZM21.4903 11.1284L21.858 10.4747L21.4903 11.1284ZM21.4903 12.8716L21.858 13.5253L21.4903 12.8716ZM5.49026 21.8716L5.85796 22.5253L5.85796 22.5253L5.49026 21.8716ZM4.49515 21.8632L4.11652 22.5106H4.11652L4.49515 21.8632ZM4.87379 2.7842C4.95046 2.73936 5.04516 2.73856 5.12257 2.78211L5.85796 1.47474C5.31609 1.16994 4.65319 1.17551 4.11652 1.48938L4.87379 2.7842ZM5.12257 2.78211L21.1226 11.7821L21.858 10.4747L5.85796 1.47474L5.12257 2.78211ZM21.1226 11.7821C21.2013 11.8264 21.25 11.9097 21.25 12H22.75C22.75 11.3678 22.409 10.7847 21.858 10.4747L21.1226 11.7821ZM21.25 12C21.25 12.0903 21.2013 12.1736 21.1226 12.2179L21.858 13.5253C22.409 13.2153 22.75 12.6322 22.75 12H21.25ZM21.1226 12.2179L5.12257 21.2179L5.85796 22.5253L21.858 13.5253L21.1226 12.2179ZM5.12257 21.2179C5.04516 21.2614 4.95046 21.2606 4.87379 21.2158L4.11652 22.5106C4.65319 22.8245 5.31609 22.8301 5.85796 22.5253L5.12257 21.2179ZM4.87379 21.2158C4.79712 21.171 4.75 21.0888 4.75 21H3.25C3.25 21.6217 3.57985 22.1967 4.11652 22.5106L4.87379 21.2158ZM4.75 21V3H3.25V21H4.75ZM4.75 3C4.75 2.91118 4.79712 2.82904 4.87379 2.7842L4.11652 1.48938C3.57985 1.80325 3.25 2.37829 3.25 3H4.75Z" fill="#333333"/>
</svg>
