<svg width="80" height="74" viewBox="0 0 80 74" fill="#fff" xmlns="http://www.w3.org/2000/svg">
<path d="M69.9381 22.6902C69.8919 22.2049 68.6998 21.2727 68.1953 21.1065C67.6896 20.9392 67.1234 21.0531 66.743 21.3969L59.111 28.3325L49.1978 19.3239L56.9825 12.2762C57.3635 11.9316 57.4878 11.419 57.3043 10.9619C57.1189 10.5039 55.8966 9.53368 55.3594 9.49163C50.6316 9.12286 45.9993 10.651 42.6501 13.6836C38.063 17.8367 36.8483 23.9014 38.9994 29.0709C38.7642 29.2502 38.5323 29.4402 38.3034 29.6451L12.3181 51.8438C12.3089 51.8519 12.2999 51.8608 12.29 51.8687C9.23402 54.6355 9.23402 59.1373 12.29 61.9045C15.3465 64.671 20.2826 64.6374 23.338 61.8706C23.3512 61.8595 23.3633 61.8484 23.3753 61.836L47.6815 38.1275C47.903 37.926 48.1088 37.7152 48.3027 37.4988C54.0142 39.4497 60.7174 38.3526 65.3084 34.1968C68.6569 31.164 70.346 26.9698 69.9381 22.6902Z" stroke="white" stroke-width="2" stroke-linejoin="round"/>
</svg>
