<svg width="30" height="31" viewBox="0 0 30 31" fill="none" xmlns="http://www.w3.org/2000/svg">
<path d="M5.75299 21.5742L4.92416 21.0147H4.92416L5.75299 21.5742ZM7.11553 17.2268L6.11553 17.2159V17.2268H7.11553ZM7.14413 14.5983L8.14413 14.6091V14.5983H7.14413ZM24.2585 21.5953L25.0979 21.0519L25.0979 21.0519L24.2585 21.5953ZM22.9472 17.2268L21.9472 17.2153V17.2268H22.9472ZM22.9758 14.7285L23.9758 14.74V14.7285H22.9758ZM11.8778 25.75C11.3255 25.75 10.8778 26.1977 10.8778 26.75C10.8778 27.3023 11.3255 27.75 11.8778 27.75V25.75ZM18.1264 27.75C18.6786 27.75 19.1264 27.3023 19.1264 26.75C19.1264 26.1977 18.6786 25.75 18.1264 25.75V27.75ZM4.06524 8.11878C3.86902 8.63504 4.12847 9.21261 4.64472 9.40882C5.16097 9.60504 5.73854 9.3456 5.93476 8.82934L4.06524 8.11878ZM9.01416 5.11946C9.49435 4.84662 9.66244 4.23618 9.38961 3.75599C9.11677 3.2758 8.50633 3.10771 8.02614 3.38054L9.01416 5.11946ZM21.9586 3.39736C21.4814 3.1193 20.8691 3.28071 20.5911 3.75789C20.313 4.23507 20.4744 4.84732 20.9516 5.12538L21.9586 3.39736ZM24.0616 8.80819C24.2525 9.32644 24.8274 9.5918 25.3457 9.40089C25.8639 9.20999 26.1293 8.63512 25.9384 8.11687L24.0616 8.80819ZM6.58181 22.1338C7.35595 20.987 8.11553 19.2889 8.11553 17.2268H6.11553C6.11553 18.7927 5.53669 20.1074 4.92416 21.0147L6.58181 22.1338ZM8.11547 17.2377L8.14407 14.6091L6.14419 14.5874L6.11559 17.2159L8.11547 17.2377ZM25.0979 21.0519C24.5105 20.1444 23.9472 18.816 23.9472 17.2268H21.9472C21.9472 19.2905 22.6762 20.9913 23.419 22.1388L25.0979 21.0519ZM23.9471 17.2382L23.9757 14.74L21.9759 14.7171L21.9473 17.2153L23.9471 17.2382ZM23.9758 14.7285C23.9758 9.33494 20.0658 4.75571 15.0021 4.75571V6.75571C18.7459 6.75571 21.9758 10.211 21.9758 14.7285H23.9758ZM23.7813 23.8135C24.6167 23.8135 25.0784 23.1672 25.2459 22.7247C25.4214 22.2605 25.4571 21.6067 25.0979 21.0519L23.419 22.1388C23.379 22.0769 23.3754 22.0311 23.375 22.0235C23.3747 22.018 23.3752 22.0163 23.375 22.0174C23.3748 22.0185 23.3746 22.0187 23.3752 22.017C23.3758 22.0155 23.3787 22.008 23.3869 21.9956C23.395 21.9833 23.4113 21.9615 23.44 21.9361C23.5019 21.8814 23.6212 21.8135 23.7813 21.8135V23.8135ZM8.14413 14.5983C8.14413 10.1527 11.3223 6.75571 15.0021 6.75571V4.75571C10.0023 4.75571 6.14413 9.27662 6.14413 14.5983H8.14413ZM6.22404 21.8135C6.38766 21.8135 6.50818 21.8841 6.56904 21.9389C6.59722 21.9643 6.61283 21.9857 6.62016 21.9971C6.62763 22.0087 6.62994 22.0152 6.63004 22.0154C6.63021 22.0159 6.62971 22.0145 6.62938 22.0123C6.62906 22.0102 6.62949 22.0111 6.62918 22.0161C6.62878 22.0225 6.62483 22.07 6.58181 22.1338L4.92416 21.0147C4.54812 21.5718 4.58092 22.2369 4.75242 22.7043C4.91528 23.1482 5.37528 23.8135 6.22404 23.8135V21.8135ZM23.7813 21.8135H6.22404V23.8135H23.7813V21.8135ZM11.8778 27.75H18.1264V25.75H11.8778V27.75ZM5.93476 8.82934C6.54535 7.22285 7.62885 5.90656 9.01416 5.11946L8.02614 3.38054C6.19535 4.42077 4.82355 6.12362 4.06524 8.11878L5.93476 8.82934ZM20.9516 5.12538C22.3728 5.95355 23.4853 7.24361 24.0616 8.80819L25.9384 8.11687C25.1956 6.10045 23.7666 4.45097 21.9586 3.39736L20.9516 5.12538Z" fill="#0066FF"/>
</svg>
