<svg width="24" height="24" viewBox="0 0 24 24" fill="none" xmlns="http://www.w3.org/2000/svg">
<path d="M2 18V20C2 21.1 2.9 22 4 22H19.99C21.09 22 21.99 21.1 21.99 20L22 18" stroke="#333333" stroke-width="1.5" stroke-miterlimit="10" stroke-linecap="round" stroke-linejoin="round"/>
<path d="M6.92107 11.8558L11.3342 18.1603C11.6494 18.5543 12.2799 18.5543 12.6739 18.1603L17.087 11.8558C18.8207 9.33408 18.5843 5.78785 16.2989 3.66011C16.1413 3.5025 15.9837 3.42369 15.8261 3.26608C13.6195 1.61118 10.3885 1.61118 8.18198 3.26608C8.02437 3.42369 7.86673 3.5025 7.70912 3.66011C5.42377 5.70904 5.18736 9.25527 6.92107 11.8558Z" stroke="#333333" stroke-width="1.5" stroke-miterlimit="10" stroke-linecap="round" stroke-linejoin="round"/>
<path d="M11.9646 10.4373C13.2703 10.4373 14.3288 9.37882 14.3288 8.07314C14.3288 6.76745 13.2703 5.70898 11.9646 5.70898C10.6589 5.70898 9.60046 6.76745 9.60046 8.07314C9.60046 9.37882 10.6589 10.4373 11.9646 10.4373Z" stroke="#333333" stroke-width="1.5" stroke-miterlimit="10" stroke-linecap="round" stroke-linejoin="round"/>
</svg>
