<svg width="60" height="60" viewBox="0 0 60 60" fill="none" xmlns="http://www.w3.org/2000/svg">
<path d="M13.4995 13.3237V8.82367C13.4995 7.16682 14.8426 5.82367 16.4995 5.82367H44.9995C46.6563 5.82367 47.9995 7.16682 47.9995 8.82367V20.8237M6.00183 48.1762L6.00205 25.3654C6.00207 23.0806 6.00122 19.8262 6.00049 17.4699C5.99998 15.8126 7.34331 14.4706 9.00061 14.4706H23.2961L30.2087 21.8547H50.9994C52.6563 21.8547 53.9994 23.1979 53.9994 24.8548L53.9987 48.1765C53.9986 51.4901 51.3123 54.1763 47.9987 54.1763L12.0018 54.1762C8.68809 54.1762 6.00179 51.4899 6.00183 48.1762Z" stroke="white" stroke-width="2" stroke-linecap="round" stroke-linejoin="round"/>
</svg>
