<svg width="24" height="24" viewBox="0 0 24 24" fill="none" xmlns="http://www.w3.org/2000/svg">
<path d="M12.0007 22.0014C17.5239 22.0014 22.0014 17.5239 22.0014 12.0007C22.0014 6.47746 17.5239 2 12.0007 2C6.47746 2 2 6.47746 2 12.0007C2 17.5239 6.47746 22.0014 12.0007 22.0014Z" stroke="#333333" stroke-width="1.5" stroke-miterlimit="10" stroke-linecap="round" stroke-linejoin="round"/>
<path d="M15.2084 10.625V15.6667C15.2084 16.1708 14.7959 16.5833 14.2917 16.5833H13.8334" stroke="#333333" stroke-width="1.5" stroke-miterlimit="10" stroke-linecap="round" stroke-linejoin="round"/>
<path d="M7.41663 11.5415L11.3583 7.6915C11.725 7.32484 12.275 7.32484 12.6416 7.6915L16.5833 11.5415" stroke="#333333" stroke-width="1.5" stroke-miterlimit="10" stroke-linecap="round" stroke-linejoin="round"/>
<path d="M13.375 16.5833H9.70829C9.20413 16.5833 8.79163 16.1708 8.79163 15.6667V10.625" stroke="#333333" stroke-width="1.5" stroke-miterlimit="10" stroke-linecap="round" stroke-linejoin="round"/>
</svg>
