<svg width="24" height="24" viewBox="0 0 24 24" fill="none" xmlns="http://www.w3.org/2000/svg">
<path d="M21 3.28995H19.69C19.3433 3.29768 19.013 3.43953 18.7687 3.6857C18.5244 3.93187 18.3851 4.26312 18.38 4.60989V6.60989C18.3851 6.95667 18.5244 7.28804 18.7687 7.53421C19.013 7.78038 19.3433 7.92224 19.69 7.92996H21M3 20.92V17.35C3.00386 17.1565 3.04614 16.9657 3.12439 16.7887C3.20264 16.6117 3.31531 16.4521 3.45581 16.319C3.59631 16.1859 3.76183 16.0821 3.94281 16.0136C4.12379 15.9451 4.31661 15.9133 4.51001 15.92H19.51C19.7034 15.9133 19.8962 15.9451 20.0771 16.0136C20.2581 16.0821 20.4237 16.1859 20.5642 16.319C20.7047 16.4521 20.8174 16.6117 20.8956 16.7887C20.9739 16.9657 21.0162 17.1565 21.02 17.35V20.92M15.44 15.57L8.59998 7.27994M5.03998 8.59L6.52002 11.92M18.52 3.91995H8M9 7.41995L18 6.91995M5.85999 8.72C6.42564 8.72 6.97859 8.55221 7.44891 8.23795C7.91924 7.92369 8.28585 7.47697 8.50232 6.95438C8.71879 6.43178 8.77539 5.85682 8.66504 5.30203C8.55469 4.74725 8.2823 4.23766 7.88232 3.83768C7.48235 3.4377 6.97275 3.16532 6.41797 3.05496C5.86318 2.94461 5.2881 3.00122 4.7655 3.21768C4.24291 3.43415 3.79626 3.8007 3.48199 4.27103C3.16773 4.74135 3 5.29424 3 5.85989C3.01051 6.61146 3.31647 7.32874 3.85168 7.85648C4.3869 8.38421 5.10835 8.68004 5.85999 8.67996V8.72Z" stroke="#333333" stroke-width="1.5" stroke-linecap="round" stroke-linejoin="round"/>
</svg>
