<svg width="24" height="24" viewBox="0 0 24 24" fill="none" xmlns="http://www.w3.org/2000/svg">
<path d="M12 12.4544C13.7574 12.4544 15.1821 11.0298 15.1821 9.27237C15.1821 7.51498 13.7574 6.09033 12 6.09033C10.2426 6.09033 8.81799 7.51498 8.81799 9.27237C8.81799 11.0298 10.2426 12.4544 12 12.4544Z" stroke="#333333" stroke-width="1.5" stroke-miterlimit="10" stroke-linecap="round" stroke-linejoin="round"/>
<path d="M17.4545 20.1825V18.8188C17.4545 17.0004 16.0908 15.6367 14.3634 15.6367H9.72674C7.99935 15.6367 6.63562 17.0914 6.63562 18.8188V20.3643" stroke="#333333" stroke-width="1.5" stroke-miterlimit="10" stroke-linecap="round" stroke-linejoin="round"/>
<path d="M12.0007 22.0014C17.5239 22.0014 22.0014 17.5239 22.0014 12.0007C22.0014 6.47746 17.5239 2 12.0007 2C6.47746 2 2 6.47746 2 12.0007C2 17.5239 6.47746 22.0014 12.0007 22.0014Z" stroke="#333333" stroke-width="1.5" stroke-miterlimit="10" stroke-linecap="round" stroke-linejoin="round"/>
</svg>
