<?xml version="1.0" encoding="utf-8"?>
<!-- Generator: Adobe Illustrator 26.5.0, SVG Export Plug-In . SVG Version: 6.00 Build 0)  -->
<svg version="1.1" id="Layer_1" xmlns="http://www.w3.org/2000/svg" xmlns:xlink="http://www.w3.org/1999/xlink" x="0px" y="0px"
	 viewBox="0 0 120 120" style="enable-background:new 0 0 120 120;" xml:space="preserve">
<style type="text/css">
	.st0{fill:none;}
	.st1{fill:none;stroke:#001135;stroke-width:4;stroke-linecap:round;stroke-linejoin:round;stroke-miterlimit:10;}
	.st2{fill:#001135;}
	.st3{fill:none;stroke:#001135;stroke-width:4;stroke-miterlimit:10;}
	.st4{fill:none;stroke:#001135;stroke-width:4;stroke-linecap:round;stroke-linejoin:round;}
	.st5{fill:#001135;stroke:#001135;stroke-width:4;stroke-linecap:round;stroke-linejoin:round;stroke-miterlimit:10;}
	.st6{fill:none;stroke:#001135;stroke-width:4.2333;stroke-linecap:round;stroke-linejoin:round;stroke-miterlimit:10;}
	.st7{fill:none;stroke:#001135;stroke-width:4;stroke-linecap:round;stroke-miterlimit:10;}
	.st8{fill:#001135;stroke:#001135;stroke-width:4;stroke-miterlimit:10;}
	.st9{fill:#001135;stroke:#001135;stroke-width:4;}
	.st10{fill:none;stroke:#001135;stroke-width:4;}
	.st11{fill:#262626;stroke:#001135;stroke-width:4.2333;}
	.st12{fill-rule:evenodd;clip-rule:evenodd;fill:none;stroke:#001135;stroke-width:4;stroke-miterlimit:10;}
	.st13{fill-rule:evenodd;clip-rule:evenodd;fill:#001135;stroke:#001135;stroke-width:4;}
	.st14{fill:#FFFFFF;stroke:#001135;stroke-width:4;stroke-miterlimit:10;}
	.st15{fill:none;stroke:#001135;stroke-width:4.2333;stroke-linecap:round;stroke-linejoin:round;}
	.st16{fill:none;stroke:#001135;stroke-width:4;stroke-linecap:round;}
	.st17{fill:#001135;stroke:#001135;stroke-miterlimit:10;}
	.st18{fill:#262626;stroke:#001135;stroke-width:4;stroke-miterlimit:10;}
	.st19{fill:#FFFFFF;stroke:#001135;stroke-width:4;stroke-linecap:round;stroke-linejoin:round;stroke-miterlimit:10;}
	.st20{fill:#001135;stroke:#001135;stroke-width:4;stroke-linecap:round;stroke-linejoin:round;}
</style>
<rect x="0" class="st0" width="120" height="120"/>
<g>
	<path class="st1" d="M39.9,32.7c11.3-7.4,26.3-8.3,38.7-0.9c11.2,6.6,17.6,18.2,18,30.3"/>
	<path class="st1" d="M80.1,94c-11.3,7.4-26.3,8.2-38.7,0.9c-11.2-6.6-17.6-18.3-18-30.4"/>
	<path class="st1" d="M50.9,38.7l-9.6-4.3c-1.7-0.7-2.4-2.4-1.7-4.1L42.9,20"/>
	<path class="st1" d="M28.3,45c-0.4,0.7-0.8,1.4-1.1,2.1c-2.4,4.9-3.8,10.4-3.8,16.2C23.4,83.6,39.8,100,60,100s36.6-16.4,36.6-36.6
		S80.2,26.8,60,26.8c-6.3,0-12.3,1.6-17.5,4.4"/>
</g>
</svg>
