<svg width="24" height="24" viewBox="0 0 24 24" fill="none" xmlns="http://www.w3.org/2000/svg">
<path d="M17.6 11.9L19.1 7L17.6 11.9ZM10.1 11L15.1 13L10.1 11ZM5.1 17L6.6 13L5.1 17ZM17.7 16.9C19.1 16.9 20.2 15.8 20.2 14.4C20.2 13 19.1 11.9 17.7 11.9C16.3 11.9 15.2 13 15.2 14.4C15.2 15.8 16.3 16.9 17.7 16.9ZM7.5 13C8.9 13 10 11.9 10 10.5C10 9.1 8.9 8 7.5 8C6.1 8 5.1 9.1 5.1 10.4C5.1 11.7 6.2 13 7.5 13ZM4.5 22C5.9 22 7 20.9 7 19.5C7 18.1 5.9 17 4.5 17C3.1 17 2 18.1 2 19.5C2 20.9 3.2 22 4.5 22ZM19.5 7C20.9 7 22 5.9 22 4.5C22 3.1 20.9 2 19.5 2C18.1 2 17 3.1 17 4.5C17 5.9 18.2 7 19.5 7Z" stroke="#333333" stroke-width="1.5" stroke-miterlimit="10" stroke-linecap="round" stroke-linejoin="round"/>
</svg>
