<svg width="53" height="24" viewBox="0 0 53 24" fill="none" xmlns="http://www.w3.org/2000/svg">
<path d="M14.3999 12.0294C14.3999 13.3192 13.3254 14.3647 11.9999 14.3647C10.6744 14.3647 9.5999 13.3192 9.5999 12.0294C9.5999 10.7396 10.6744 9.69402 11.9999 9.69402C13.3254 9.69402 14.3999 10.7396 14.3999 12.0294Z" stroke="white" stroke-width="2"/>
<path d="M36 15.2044L36 18.8925C36 19.4514 36.2107 19.9875 36.5858 20.3827C36.9609 20.778 37.4696 21 38 21H50C50.5304 21 51.0391 20.778 51.4142 20.3827C51.7893 19.9875 52 19.4514 52 18.8925V15.2044M44.0011 3V14.9425M44.0011 14.9425L48.5725 10.3793M44.0011 14.9425L39.4297 10.3793" stroke="white" stroke-width="2" stroke-linecap="round" stroke-linejoin="round"/>
</svg>
