<svg width="24" height="24" viewBox="0 0 24 24" fill="none" xmlns="http://www.w3.org/2000/svg">
<path d="M11.9762 12.6277V20.7277M14.6959 13.9277L12.5806 11.8277C12.2784 11.4277 11.674 11.4277 11.2711 11.8277L9.15577 13.9277M6.03317 16.2277C3.91786 16.2277 2.10473 14.5277 2.004 12.5277C1.90328 10.3277 3.7164 8.42766 5.93244 8.42766C6.43608 8.42766 6.839 8.02766 6.839 7.52766C6.839 7.42766 6.839 7.32766 6.839 7.22766C7.04046 5.32766 8.65212 3.72766 10.6667 3.52766C12.5806 3.32766 14.1922 4.22766 14.9981 5.72766C15.1995 6.12766 15.6024 6.32766 15.9046 6.22766H16.4083C16.9119 6.22766 17.3148 6.22766 17.7177 6.22766C21.2433 6.72766 23.1571 11.0277 21.2433 13.9277C20.4374 15.1277 19.128 15.9277 17.7177 16.2277" stroke="#333333" stroke-width="1.5" stroke-miterlimit="10" stroke-linecap="round" stroke-linejoin="round"/>
</svg>
