<svg width="24" height="24" viewBox="0 0 24 24" fill="none" xmlns="http://www.w3.org/2000/svg">
<path d="M3 9.43718C3 10.8442 7 11.9497 12 11.9497C14.1 11.9497 16 11.7487 17.5 11.4472M3 14.4623C3 15.8693 7 16.9749 12 16.9749C14.1 16.9749 16 16.7739 17.5 16.4724M3 4.41206V19.4874C3 20.8945 7 22 12 22C17 22 21 20.8945 21 19.4874V4.41206M12 7.02513C17 7.02513 21 5.9196 21 4.51256C21 3.10553 17 2 12 2C7 2 3 3.10553 3 4.51256C3 5.9196 7 7.02513 12 7.02513Z" stroke="#333333" stroke-width="1.5" stroke-miterlimit="10" stroke-linecap="round" stroke-linejoin="round"/>
</svg>
