<svg width="24" height="24" viewBox="0 0 24 24" fill="none" xmlns="http://www.w3.org/2000/svg">
<path d="M9.27317 8.36482H14.7281C15.2736 8.36482 15.6372 8.00116 15.6372 7.45567V3.81906C15.6372 3.27357 15.2736 2.90991 14.7281 2.90991H9.27317C8.72767 2.90991 8.36401 3.27357 8.36401 3.81906V7.45567C8.36401 8.00116 8.72767 8.36482 9.27317 8.36482Z" stroke="#333333" stroke-width="1.5" stroke-miterlimit="10" stroke-linecap="round" stroke-linejoin="round"/>
<path d="M2.90915 21.0928H8.36406C8.90955 21.0928 9.27321 20.7292 9.27321 20.1837V16.5471C9.27321 16.0016 8.90955 15.6379 8.36406 15.6379H2.90915C2.36366 15.6379 2 16.0016 2 16.5471V20.1837C2 20.7292 2.36366 21.0928 2.90915 21.0928Z" stroke="#333333" stroke-width="1.5" stroke-miterlimit="10" stroke-linecap="round" stroke-linejoin="round"/>
<path d="M15.6374 21.0928H21.0923C21.6378 21.0928 22.0015 20.7292 22.0015 20.1837V16.5471C22.0015 16.0016 21.6378 15.6379 21.0923 15.6379H15.6374C15.0919 15.6379 14.7283 16.0016 14.7283 16.5471V20.1837C14.7283 20.7292 15.0919 21.0928 15.6374 21.0928Z" stroke="#333333" stroke-width="1.5" stroke-miterlimit="10" stroke-linecap="round" stroke-linejoin="round"/>
<path d="M5.6366 15.5V13.8198C5.6366 12.8197 6.45483 12.0015 7.4549 12.0015H16.5464C17.5465 12.0015 18.3647 12.8197 18.3647 13.8198V15.5" stroke="#333333" stroke-width="1.5" stroke-miterlimit="10" stroke-linecap="round" stroke-linejoin="round"/>
<path d="M12.0007 8.36499V11.9107" stroke="#333333" stroke-width="1.5" stroke-miterlimit="10" stroke-linecap="round" stroke-linejoin="round"/>
</svg>
