<svg width="30" height="31" viewBox="0 0 30 31" fill="none" xmlns="http://www.w3.org/2000/svg">
<path d="M4.97106 3.83333C5.89262 3.83333 6.63965 3.08714 6.63965 2.16667C6.63965 1.24619 5.89262 0.5 4.97106 0.5C4.35343 0.5 3.81422 0.835167 3.52572 1.33333H3.30246C1.92015 1.33333 0.799566 2.45262 0.799566 3.83333V11.3333C0.338817 11.3333 -0.0386444 11.7072 0.00317066 12.1656C0.197137 14.2916 1.12968 16.2933 2.65326 17.8152C3.7705 18.9311 5.14609 19.7296 6.63965 20.1525V22.1667C6.63965 23.2553 7.33629 24.1814 8.30858 24.5245C8.34412 27.8307 11.0385 30.5 14.3569 30.5C17.6975 30.5 20.4056 27.7951 20.4056 24.4583V21.125C20.4056 19.3991 21.8063 18 23.5342 18C25.2621 18 26.6628 19.3991 26.6628 21.125V23.1423C25.6907 23.4854 24.9942 24.4115 24.9942 25.5C24.9942 26.8807 26.1148 28 27.4971 28C28.8795 28 30 26.8807 30 25.5C30 24.4115 29.3035 23.4854 28.3314 23.1423V21.125C28.3314 18.4787 26.1836 16.3333 23.5342 16.3333C20.8848 16.3333 18.737 18.4787 18.737 21.125V24.4583C18.737 26.8746 16.776 28.8333 14.3569 28.8333C11.9599 28.8333 10.0126 26.9101 9.97735 24.5243C10.9492 24.1809 11.6454 23.255 11.6454 22.1667V20.1525C13.139 19.7296 14.5147 18.9311 15.6319 17.8152C17.1555 16.2933 18.088 14.2916 18.2819 12.1656C18.3238 11.7072 17.9463 11.3333 17.4855 11.3333V3.83333C17.4855 2.45262 16.365 1.33333 14.9826 1.33333H14.7594C14.4709 0.835167 13.9317 0.5 13.314 0.5C12.3925 0.5 11.6454 1.24619 11.6454 2.16667C11.6454 3.08714 12.3925 3.83333 13.314 3.83333C13.9317 3.83333 14.4709 3.49817 14.7594 3H14.9826C15.4434 3 15.8169 3.3731 15.8169 3.83333V11.3333H15.9917C15.5309 11.3333 15.1633 11.7083 15.0997 12.1641C14.9199 13.4505 14.3258 14.6525 13.3957 15.5816C12.2677 16.7083 10.7378 17.3412 9.14255 17.3412C7.54737 17.3412 6.01743 16.7083 4.88946 15.5816C3.9593 14.6525 3.36528 13.4505 3.18549 12.1641C3.12179 11.7083 2.75421 11.3333 2.29344 11.3333H2.46816V3.83333C2.46816 3.3731 2.84169 3 3.30246 3H3.52572C3.81422 3.49817 4.35343 3.83333 4.97106 3.83333Z" fill="black"/>
</svg>
