<svg width="60" height="60" viewBox="0 0 60 60" fill="none" xmlns="http://www.w3.org/2000/svg">
<path d="M9.94211 6.66667C11.7852 6.66667 13.2793 5.17428 13.2793 3.33333C13.2793 1.49238 11.7852 0 9.94211 0C8.70685 0 7.62844 0.670333 7.05144 1.66667H6.60492C3.84031 1.66667 1.59913 3.90525 1.59913 6.66667V21.6667C0.677634 21.6667 -0.0772887 22.4145 0.00634133 23.3312C0.394273 27.5832 2.25936 31.5867 5.30652 34.6303C7.541 36.8622 10.2922 38.4592 13.2793 39.305V43.3333C13.2793 45.5107 14.6726 47.3628 16.6172 48.049C16.6882 54.6615 22.077 60 28.7138 60C35.395 60 40.8111 54.5902 40.8111 47.9167V41.25C40.8111 37.7982 43.6125 35 47.0684 35C50.5242 35 53.3256 37.7982 53.3256 41.25V45.2845C51.3814 45.9708 49.9884 47.823 49.9884 50C49.9884 52.7615 52.2295 55 54.9942 55C57.7589 55 60 52.7615 60 50C60 47.823 58.6071 45.9708 56.6628 45.2845V41.25C56.6628 35.9573 52.3672 31.6667 47.0684 31.6667C41.7696 31.6667 37.474 35.9573 37.474 41.25V47.9167C37.474 52.7492 33.5519 56.6667 28.7138 56.6667C23.9198 56.6667 20.0253 52.8202 19.9547 48.0485C21.8984 47.3618 23.2909 45.51 23.2909 43.3333V39.305C26.278 38.4592 29.0294 36.8622 31.2638 34.6303C34.311 31.5867 36.1759 27.5832 36.5639 23.3312C36.6477 22.4145 35.8926 21.6667 34.9711 21.6667V6.66667C34.9711 3.90525 32.73 1.66667 29.9653 1.66667H29.5188C28.9418 0.670333 27.8633 0 26.6281 0C24.7849 0 23.2909 1.49238 23.2909 3.33333C23.2909 5.17428 24.7849 6.66667 26.6281 6.66667C27.8633 6.66667 28.9418 5.99633 29.5188 5H29.9653C30.8868 5 31.6339 5.7462 31.6339 6.66667V21.6667H31.9834C31.0619 21.6667 30.3267 22.4165 30.1994 23.3282C29.8398 25.901 28.6516 28.305 26.7914 30.1632C24.5353 32.4165 21.4756 33.6825 18.2851 33.6825C15.0947 33.6825 12.0349 32.4165 9.77892 30.1632C7.91861 28.305 6.73057 25.901 6.37098 23.3282C6.24357 22.4165 5.50842 21.6667 4.58687 21.6667H4.93633V6.66667C4.93633 5.7462 5.68339 5 6.60492 5H7.05144C7.62844 5.99633 8.70685 6.66667 9.94211 6.66667Z" fill="white"/>
</svg>
