<svg width="24" height="24" viewBox="0 0 24 24" fill="none" xmlns="http://www.w3.org/2000/svg">
<path d="M2.9779 21L21.0314 3M15.0136 5.4C14.1109 5.2 13.2082 5 12.2053 5C5.88653 5 2.8776 10.3 2.07522 12C1.97493 12.3 1.97493 12.7 2.07522 13C2.47641 13.6 3.27879 14.9 4.48236 16.1M6.9898 17.5C8.39396 18.3 10.099 18.9 12.0047 18.9C17.6213 18.9 20.9311 14.3 21.8338 12.8C22.0344 12.5 22.0344 12.2 21.9341 11.9C21.4326 10.9 20.2291 8.6 17.8219 6.9M15.1139 9.4C15.7157 10.1 16.0166 11 16.0166 11.9C16.0166 14.1 14.2112 15.9 12.0047 15.9C11.102 15.9 10.1993 15.6 9.49723 15M7.99277 12.4C7.99277 12.2 7.99277 12.1 7.99277 11.9C7.99277 9.7 9.79813 7.9 12.0047 7.9C12.2053 7.9 12.4059 7.9 12.6065 7.9" stroke="#333333" stroke-width="1.5" stroke-miterlimit="10" stroke-linecap="round"/>
</svg>
