<svg width="60" height="60" viewBox="0 0 60 60" fill="none" xmlns="http://www.w3.org/2000/svg">
<path d="M37.5004 6.00002V15C37.5004 16.6569 38.8436 18 40.5004 18H49.5004M21.0004 45V33M30.0004 45L30.0004 21M39.0005 45V33M45.0004 10.5C43.6653 9.30537 42.2797 7.88846 41.4051 6.96821C40.823 6.35585 40.0189 6.00002 39.174 6.00002H16.4997C13.1861 6.00002 10.4998 8.68629 10.4997 12L10.4995 47.9998C10.4995 51.3136 13.1858 53.9999 16.4995 53.9999L43.4996 54C46.8133 54 49.4995 51.3138 49.4996 48.0001L49.5004 16.1946C49.5004 15.4275 49.2078 14.6901 48.6754 14.1378C47.6909 13.1166 46.0469 11.4363 45.0004 10.5Z" stroke="white" stroke-width="2" stroke-linecap="round" stroke-linejoin="round"/>
</svg>
