<svg width="80" height="74" viewBox="0 0 80 74" fill="#fff" xmlns="http://www.w3.org/2000/svg">
<path d="M63.3333 32.1564V18.5251C63.3333 15.1792 60.3486 12.4668 56.6667 12.4668H16.6667C12.9848 12.4668 10 15.1792 10 18.5252V42.2317C10 45.5777 12.9848 48.2901 16.6667 48.2901H21.8841V60.9336L35.7971 48.2901H36.6667M53.8768 56.0606L62.5725 63.9628V56.0606H63.3333C67.0152 56.0606 70 53.3482 70 50.0022V39.7294C70 36.3834 67.0152 33.671 63.3333 33.671H43.3333C39.6514 33.671 36.6667 36.3834 36.6667 39.7294V50.0022C36.6667 53.3482 39.6514 56.0606 43.3333 56.0606H53.8768Z" stroke="white" stroke-width="2" stroke-linecap="round" stroke-linejoin="round"/>
</svg>
