<svg width="24" height="24" viewBox="0 0 24 24" fill="none" xmlns="http://www.w3.org/2000/svg">
<path d="M18.9978 21H5.00222C3.89099 21 3 20.099 3 18.9978V5.00222C3 3.89099 3.901 3 5.00222 3H18.9978C20.109 3 21 3.901 21 5.00222V18.9978C21 20.109 20.109 21 18.9978 21Z" stroke="#333333" stroke-width="1.5" stroke-miterlimit="10" stroke-linecap="round" stroke-linejoin="round"/>
<circle cx="17.0056" cy="12.0004" r="0.500556" transform="rotate(-90 17.0056 12.0004)" fill="#333333"/>
<circle cx="17.0056" cy="12.0004" r="0.500556" transform="rotate(-90 17.0056 12.0004)" stroke="#333333" stroke-width="1.5"/>
<circle cx="12.0001" cy="12.0004" r="0.500556" transform="rotate(-90 12.0001 12.0004)" fill="#333333"/>
<circle cx="12.0001" cy="12.0004" r="0.500556" transform="rotate(-90 12.0001 12.0004)" stroke="#333333" stroke-width="1.5"/>
<circle cx="6.99445" cy="12.0004" r="0.500556" transform="rotate(-90 6.99445 12.0004)" fill="#333333"/>
<circle cx="6.99445" cy="12.0004" r="0.500556" transform="rotate(-90 6.99445 12.0004)" stroke="#333333" stroke-width="1.5"/>
</svg>
