<svg width="24" height="24" viewBox="0 0 24 24" fill="none" xmlns="http://www.w3.org/2000/svg">
<path d="M13.0006 22.0014C18.5239 22.0014 23.0013 17.5239 23.0013 12.0007C23.0013 6.47746 18.5239 2 13.0006 2C7.47744 2 3 6.47746 3 12.0007C3 17.5239 7.47744 22.0014 13.0006 22.0014Z" stroke="#FFFFFF" stroke-width="1" stroke-miterlimit="10" stroke-linecap="round" stroke-linejoin="round"/>
<path d="M13.227 6.69042C13.0997 6.42676 12.8906 6.42676 12.7633 6.69042L11.5268 9.20877C11.3996 9.46333 11.0632 9.7088 10.7723 9.75426L7.99935 10.1543C7.70842 10.1997 7.64478 10.3998 7.85388 10.5998L9.86311 12.5545C10.0722 12.7545 10.1995 13.1545 10.154 13.4363L9.68128 16.2002C9.62673 16.482 9.79947 16.6093 10.054 16.4729L12.536 15.1637C12.7906 15.0274 13.2088 15.0274 13.4633 15.1637L15.9453 16.4729C16.1999 16.6093 16.3635 16.482 16.3181 16.2002L15.8453 13.4363C15.7999 13.1545 15.9271 12.7545 16.1362 12.5545L18.1455 10.5998C18.3546 10.3998 18.2909 10.1997 18 10.1543L15.2271 9.75426C14.9362 9.7179 14.5998 9.47243 14.4725 9.20877L13.227 6.69042Z" stroke="#FFFFFF" stroke-width="1" stroke-miterlimit="10" stroke-linecap="round" stroke-linejoin="round"/>
</svg>
