<svg width="30" height="31" viewBox="0 0 30 31" fill="none" xmlns="http://www.w3.org/2000/svg">
<path d="M26.2266 9.71879C26.2092 9.5185 25.7622 9.13385 25.573 9.06524C25.3834 8.99621 25.1711 9.0432 25.0284 9.18511L22.1664 12.0471L18.4489 8.32967L21.3682 5.4214C21.5111 5.27921 21.5577 5.06767 21.4889 4.87905C21.4193 4.69006 20.961 4.28969 20.7595 4.27234C18.9866 4.12016 17.2495 4.75077 15.9935 6.00217C14.2734 7.71597 13.8179 10.2186 14.6245 12.3518C14.5364 12.4258 14.4494 12.5042 14.3636 12.5887L4.61906 21.7491C4.61562 21.7525 4.61223 21.7561 4.60851 21.7594C3.46253 22.9011 3.46253 24.7588 4.60851 25.9007C5.75469 27.0423 7.60573 27.0284 8.75153 25.8867C8.75648 25.8821 8.76099 25.8775 8.76551 25.8724L17.8803 16.089C17.9634 16.0059 18.0406 15.9189 18.1133 15.8296C20.2551 16.6347 22.7688 16.1819 24.4904 14.467C25.7461 13.2155 26.3795 11.4848 26.2266 9.71879Z" stroke="black" stroke-width="2" stroke-linejoin="round"/>
</svg>
