<svg width="24" height="24" viewBox="0 0 24 24" fill="none" xmlns="http://www.w3.org/2000/svg">
<path fill-rule="evenodd" clip-rule="evenodd" d="M12 1C5.92487 1 1 5.92487 1 12C1 18.0751 5.92487 23 12 23C18.0751 23 23 18.0751 23 12C23 5.92487 18.0751 1 12 1ZM12 5.49984C12.5523 5.49984 13 5.94755 13 6.49984V13.8332C13 14.3855 12.5523 14.8332 12 14.8332C11.4477 14.8332 11 14.3855 11 13.8332V6.49984C11 5.94755 11.4477 5.49984 12 5.49984ZM11.9999 18.5211C12.566 18.5211 13.0248 18.0622 13.0248 17.4962C13.0248 16.9301 12.566 16.4713 11.9999 16.4713C11.4339 16.4713 10.975 16.9301 10.975 17.4962C10.975 18.0622 11.4339 18.5211 11.9999 18.5211Z" fill="#333333"/>
</svg>
