<?xml version="1.0" encoding="utf-8"?>
<!-- Generator: Adobe Illustrator 26.5.0, SVG Export Plug-In . SVG Version: 6.00 Build 0)  -->
<svg version="1.1" id="Layer_1" xmlns="http://www.w3.org/2000/svg" xmlns:xlink="http://www.w3.org/1999/xlink" x="0px" y="0px"
	 viewBox="0 0 120 120" style="enable-background:new 0 0 120 120;" xml:space="preserve">
<style type="text/css">
	.st0{fill:#005AFF;}
	.st1{fill:none;stroke:#FFFFFF;stroke-width:4;stroke-linecap:round;stroke-linejoin:round;stroke-miterlimit:10;}
	.st2{fill:#FFFFFF;}
	.st3{fill:none;stroke:#FFFFFF;stroke-width:4;stroke-miterlimit:10;}
	.st4{fill:none;stroke:#FFFFFF;stroke-width:4;stroke-linecap:round;stroke-linejoin:round;}
	.st5{fill:#FFFFFF;stroke:#FFFFFF;stroke-width:4;stroke-linecap:round;stroke-linejoin:round;stroke-miterlimit:10;}
	.st6{fill:none;stroke:#FFFFFF;stroke-width:4.2333;stroke-linecap:round;stroke-linejoin:round;stroke-miterlimit:10;}
	.st7{fill:none;stroke:#FFFFFF;stroke-width:4;stroke-linecap:round;stroke-miterlimit:10;}
	.st8{fill:#FFFFFF;stroke:#FFFFFF;stroke-width:4;stroke-miterlimit:10;}
	.st9{fill:#FFFFFF;stroke:#FFFFFF;stroke-width:4;}
	.st10{fill:none;stroke:#FFFFFF;stroke-width:4;}
	.st11{fill:#262626;stroke:#FFFFFF;stroke-width:4.2333;}
	.st12{fill-rule:evenodd;clip-rule:evenodd;fill:none;stroke:#FFFFFF;stroke-width:4;stroke-miterlimit:10;}
	.st13{fill-rule:evenodd;clip-rule:evenodd;fill:#FFFFFF;stroke:#FFFFFF;stroke-width:4;}
	.st14{fill:none;stroke:#FFFFFF;stroke-width:4.2333;stroke-linecap:round;stroke-linejoin:round;}
	.st15{fill:none;stroke:#FFFFFF;stroke-width:4;stroke-linecap:round;}
	.st16{fill:#FFFFFF;stroke:#FFFFFF;stroke-miterlimit:10;}
	.st17{fill:#262626;stroke:#FFFFFF;stroke-width:4;stroke-miterlimit:10;}
	.st18{fill:#FFFFFF;stroke:#FFFFFF;stroke-width:4;stroke-linecap:round;stroke-linejoin:round;}
</style>
<rect class="st0" width="120" height="120"/>
<g>
	<path class="st1" d="M76.9,55c-1.1,0.2-2.4-0.1-3.9-1.4c-1.1-1-1.9-2.3-1.9-3.8c0-1.2,0.4-2.3,1.1-3.1c0.3-0.4,0.2-0.9-0.1-1.2
		c-1.8-1.7-4-3-6.4-3.9c-0.4-0.2-0.9,0.1-1.1,0.5c-0.8,1.8-2.6,3.1-4.7,3.1c-2.1,0-3.9-1.3-4.7-3.1c-0.2-0.4-0.7-0.6-1.1-0.5
		c-2.4,0.8-4.6,2.2-6.4,3.9c-0.3,0.3-0.4,0.9-0.1,1.2c0.7,0.9,1.1,2,1.1,3.2c0,1.5-0.8,2.8-1.9,3.8c-1.5,1.3-2.7,1.5-3.9,1.4
		c-0.5-0.1-0.9,0.2-1.1,0.7c-0.3,1.4-0.5,2.9-0.5,4.4c0,1.4,0.2,2.8,0.4,4.2c0.1,0.5,0.6,0.8,1.1,0.7c1-0.2,2.2,0,3.5,1
		c1.4,1.1,2.5,2.7,2.3,4.5c-0.1,1.1-0.5,2.1-1.2,2.8c-0.3,0.4-0.3,0.9,0.1,1.2c1.8,1.7,4,3.1,6.4,3.9c0.4,0.2,1-0.1,1.1-0.5
		c0.8-1.9,2.6-3.2,4.8-3.2c2.2,0,4,1.3,4.8,3.2c0.2,0.4,0.7,0.7,1.1,0.5c2.4-0.8,4.6-2.2,6.4-3.9c0.3-0.3,0.4-0.9,0.1-1.2
		c-0.8-0.9-1.2-2.1-1.2-3.4c0-1.4,0.8-2.7,1.9-3.6c1.5-1.3,2.8-1.5,3.9-1.4c0.5,0.1,1-0.2,1.1-0.7c0.3-1.3,0.4-2.7,0.4-4.2
		c0-1.5-0.2-3-0.5-4.3C77.8,55.2,77.3,54.9,76.9,55z"/>
	<circle class="st1" cx="59.9" cy="59.9" r="5.3"/>
	<g>
		<path class="st1" d="M93.8,39.3c-7.6-12.5-21.9-20.2-37.4-18.8c-21.8,2-37.8,21.3-35.8,43.1"/>
		<path class="st1" d="M26.2,80.7c7.6,12.4,21.9,20.2,37.4,18.7c21.8-2,37.8-21.3,35.8-43.1"/>
		<path class="st1" d="M97,30.1l0,9.9c0,1.7-1.2,2.8-2.8,2.8l-9.9,0"/>
		<path class="st1" d="M20.7,88.9l2-9.7c0.3-1.6,1.7-2.5,3.3-2.2l9.7,2"/>
	</g>
</g>
</svg>
