<svg width="24" height="24" viewBox="0 0 24 24" fill="none" xmlns="http://www.w3.org/2000/svg">
<path d="M3.81831 19.5H20.1831C21.1831 19.5 22.0014 18.5357 22.0014 17.3571V6.64286C22.0014 5.46429 21.1831 4.5 20.1831 4.5H3.81831C2.81824 4.5 2 5.46429 2 6.64286V17.3571C2 18.5357 2.81824 19.5 3.81831 19.5Z" stroke="#333333" stroke-width="1.5" stroke-miterlimit="10" stroke-linecap="round" stroke-linejoin="round"/>
<path d="M9.99999 16.119L14 16.1189" stroke="#333333" stroke-width="1.5" stroke-miterlimit="10" stroke-linecap="round" stroke-linejoin="round"/>
<path d="M8 12.5C8.27614 12.5 8.5 12.2761 8.5 12C8.5 11.7239 8.27614 11.5 8 11.5C7.72386 11.5 7.5 11.7239 7.5 12C7.5 12.2761 7.72386 12.5 8 12.5Z" fill="#333333"/>
<path d="M8 12.5C8.27614 12.5 8.5 12.2761 8.5 12C8.5 11.7239 8.27614 11.5 8 11.5C7.72386 11.5 7.5 11.7239 7.5 12C7.5 12.2761 7.72386 12.5 8 12.5Z" stroke="#333333" stroke-width="1.5"/>
<path d="M12 12.5C12.2761 12.5 12.5 12.2761 12.5 12C12.5 11.7239 12.2761 11.5 12 11.5C11.7239 11.5 11.5 11.7239 11.5 12C11.5 12.2761 11.7239 12.5 12 12.5Z" fill="#333333"/>
<path d="M12 12.5C12.2761 12.5 12.5 12.2761 12.5 12C12.5 11.7239 12.2761 11.5 12 11.5C11.7239 11.5 11.5 11.7239 11.5 12C11.5 12.2761 11.7239 12.5 12 12.5Z" stroke="#333333" stroke-width="1.5"/>
<path d="M16 12.5C16.2761 12.5 16.5 12.2761 16.5 12C16.5 11.7239 16.2761 11.5 16 11.5C15.7239 11.5 15.5 11.7239 15.5 12C15.5 12.2761 15.7239 12.5 16 12.5Z" fill="#333333"/>
<path d="M16 12.5C16.2761 12.5 16.5 12.2761 16.5 12C16.5 11.7239 16.2761 11.5 16 11.5C15.7239 11.5 15.5 11.7239 15.5 12C15.5 12.2761 15.7239 12.5 16 12.5Z" stroke="#333333" stroke-width="1.5"/>
<path d="M6 8.75C6.27614 8.75 6.5 8.52614 6.5 8.25C6.5 7.97386 6.27614 7.75 6 7.75C5.72386 7.75 5.5 7.97386 5.5 8.25C5.5 8.52614 5.72386 8.75 6 8.75Z" fill="#333333"/>
<path d="M6 8.75C6.27614 8.75 6.5 8.52614 6.5 8.25C6.5 7.97386 6.27614 7.75 6 7.75C5.72386 7.75 5.5 7.97386 5.5 8.25C5.5 8.52614 5.72386 8.75 6 8.75Z" stroke="#333333" stroke-width="1.5"/>
<path d="M10 8.75C10.2761 8.75 10.5 8.52614 10.5 8.25C10.5 7.97386 10.2761 7.75 10 7.75C9.72386 7.75 9.5 7.97386 9.5 8.25C9.5 8.52614 9.72386 8.75 10 8.75Z" fill="#333333"/>
<path d="M10 8.75C10.2761 8.75 10.5 8.52614 10.5 8.25C10.5 7.97386 10.2761 7.75 10 7.75C9.72386 7.75 9.5 7.97386 9.5 8.25C9.5 8.52614 9.72386 8.75 10 8.75Z" stroke="#333333" stroke-width="1.5"/>
<path d="M14 8.75C14.2761 8.75 14.5 8.52614 14.5 8.25C14.5 7.97386 14.2761 7.75 14 7.75C13.7239 7.75 13.5 7.97386 13.5 8.25C13.5 8.52614 13.7239 8.75 14 8.75Z" fill="#333333"/>
<path d="M14 8.75C14.2761 8.75 14.5 8.52614 14.5 8.25C14.5 7.97386 14.2761 7.75 14 7.75C13.7239 7.75 13.5 7.97386 13.5 8.25C13.5 8.52614 13.7239 8.75 14 8.75Z" stroke="#333333" stroke-width="1.5"/>
<path d="M18 8.75C18.2761 8.75 18.5 8.52614 18.5 8.25C18.5 7.97386 18.2761 7.75 18 7.75C17.7239 7.75 17.5 7.97386 17.5 8.25C17.5 8.52614 17.7239 8.75 18 8.75Z" fill="#333333"/>
<path d="M18 8.75C18.2761 8.75 18.5 8.52614 18.5 8.25C18.5 7.97386 18.2761 7.75 18 7.75C17.7239 7.75 17.5 7.97386 17.5 8.25C17.5 8.52614 17.7239 8.75 18 8.75Z" stroke="#333333" stroke-width="1.5"/>
</svg>
