<svg width="24" height="24" viewBox="0 0 24 24" fill="none" xmlns="http://www.w3.org/2000/svg">
<path fill-rule="evenodd" clip-rule="evenodd" d="M12 1C5.92487 1 1 5.92487 1 12C1 18.0751 5.92487 23 12 23C18.0751 23 23 18.0751 23 12C23 5.92487 18.0751 1 12 1ZM17.7488 9.22395C18.1393 8.83343 18.1393 8.20026 17.7488 7.80974C17.3583 7.41921 16.7251 7.41921 16.3346 7.80974L9.70837 14.436L7.66548 12.3931C7.27496 12.0025 6.64179 12.0025 6.25127 12.3931C5.86074 12.7836 5.86074 13.4168 6.25127 13.8073L8.3596 15.9156C9.11679 16.6728 10.3 16.6728 11.0571 15.9156L17.7488 9.22395Z" fill="#333333"/>
</svg>
