<svg width="24" height="24" viewBox="0 0 24 24" fill="none" xmlns="http://www.w3.org/2000/svg">
<path d="M12.66 9.25391C12.66 8.97776 12.8839 8.75391 13.16 8.75391C13.4362 8.75391 13.66 8.97776 13.66 9.25391C13.66 9.53005 13.4362 9.75391 13.16 9.75391C12.8839 9.75391 12.66 9.53005 12.66 9.25391Z" fill="#333333"/>
<path d="M12.66 9.25391C12.66 8.97776 12.8839 8.75391 13.16 8.75391C13.4362 8.75391 13.66 8.97776 13.66 9.25391C13.66 9.53005 13.4362 9.75391 13.16 9.75391C12.8839 9.75391 12.66 9.53005 12.66 9.25391Z" stroke="#333333" stroke-width="1.5"/>
<path d="M13.16 13.2474L13.16 18.5" stroke="#333333" stroke-width="1.5" stroke-miterlimit="10" stroke-linecap="round" stroke-linejoin="round"/>
<path d="M8.32489 20.9001H18.0031C18.873 20.9001 19.578 20.1844 19.5688 19.2921V6.68853C19.5688 5.80554 18.8638 5.08984 17.994 5.08984H8.32489C7.45504 5.08984 6.75 5.80554 6.75 6.68853V19.3014C6.75 20.1844 7.45504 20.9001 8.32489 20.9001Z" stroke="#333333" stroke-width="1.5" stroke-miterlimit="10" stroke-linecap="round" stroke-linejoin="round"/>
<path d="M13 2H7.63187C5.42084 2 3.63 3.79 3.63 6V14" stroke="#333333" stroke-width="1.5" stroke-miterlimit="10" stroke-linecap="round" stroke-linejoin="round"/>
</svg>
