<svg width="60" height="60" viewBox="0 0 60 60" fill="none" xmlns="http://www.w3.org/2000/svg">
<path d="M52.4536 18.4376C52.419 18.037 51.5249 17.2677 51.1465 17.1305C50.7672 16.9924 50.3426 17.0864 50.0573 17.3702L44.3333 23.0942L36.8984 15.6593L42.7369 9.8428C43.0226 9.55843 43.1159 9.13533 42.9782 8.75811C42.8392 8.38013 41.9225 7.57938 41.5195 7.54468C37.9737 7.24033 34.4995 8.50153 31.9876 11.0043C28.5473 14.4319 27.6363 19.4372 29.2495 23.7036C29.0732 23.8516 28.8992 24.0084 28.7276 24.1775L9.2386 42.4983C9.23173 42.5049 9.22495 42.5122 9.21752 42.5188C6.92554 44.8022 6.92554 48.5176 9.21752 50.8014C11.5099 53.0847 15.212 53.0569 17.5036 50.7735C17.5134 50.7643 17.5225 50.7551 17.5315 50.7448L35.7611 31.1781C35.9273 31.0118 36.0816 30.8378 36.227 30.6592C40.5107 32.2693 45.538 31.3639 48.9813 27.934C51.4927 25.431 52.7595 21.9696 52.4536 18.4376Z" stroke="white" stroke-width="2" stroke-linejoin="round"/>
</svg>
