<svg width="24" height="24" viewBox="0 0 24 24" fill="none" xmlns="http://www.w3.org/2000/svg">
<path d="M12.204 10.3445V14.1314H17.8273C17.7143 15.0726 17.1016 16.4897 15.741 17.4423C14.8793 18.0436 13.7226 18.463 12.204 18.463C9.50573 18.463 7.21543 16.683 6.39876 14.2223C6.18332 13.5875 6.05881 12.9068 6.05881 12.204C6.05881 11.5011 6.18332 10.8204 6.38729 10.1856C7.21461 7.72493 9.50491 5.94495 12.204 5.94495C14.1199 5.94495 15.4125 6.77228 16.1497 7.46445L19.0298 4.65236C17.2605 3.00917 14.9587 2 12.204 2C8.21314 2 4.76622 4.2903 3.08863 7.62336C2.39646 9.00688 2 10.56 2 12.204C2 13.848 2.39646 15.401 3.08863 16.7846C4.76622 20.1176 8.21314 22.4079 12.204 22.4079C14.9587 22.4079 17.272 21.5011 18.961 19.9366C20.8884 18.1566 21.9992 15.5378 21.9992 12.4309C21.9992 11.5921 21.9312 10.9794 21.7837 10.3445H12.204Z" fill="#333333"/>
</svg>
