<svg width="24" height="24" viewBox="0 0 24 24" fill="none" xmlns="http://www.w3.org/2000/svg">
<path d="M12.25 10.0142C13.4926 10.0142 14.5 9.0068 14.5 7.76416C14.5 6.52152 13.4926 5.51416 12.25 5.51416C11.0074 5.51416 10 6.52152 10 7.76416C10 9.0068 11.0074 10.0142 12.25 10.0142Z" stroke="#333333" stroke-width="1.5" stroke-miterlimit="10" stroke-linecap="round" stroke-linejoin="round"/>
<path d="M7 21.5164V16.0671C7 14.6178 8.2987 13.5164 9.85714 13.5164H14.1429C15.7013 13.5164 17 14.6758 17 16.0671V21.5164" stroke="#333333" stroke-width="1.5" stroke-miterlimit="10" stroke-linecap="round" stroke-linejoin="round"/>
<path d="M5.07654 6.97998C6.31918 6.97998 7.32654 5.97262 7.32654 4.72998C7.32654 3.48734 6.31918 2.47998 5.07654 2.47998C3.8339 2.47998 2.82654 3.48734 2.82654 4.72998C2.82654 5.97262 3.8339 6.97998 5.07654 6.97998Z" stroke="#333333" stroke-width="1.5" stroke-miterlimit="10" stroke-linecap="round" stroke-linejoin="round"/>
<path d="M1 14.5667V13.108C1 11.6492 2.09091 10.5405 3.4 10.5405H7" stroke="#333333" stroke-width="1.5" stroke-miterlimit="10" stroke-linecap="round" stroke-linejoin="round"/>
<path d="M19.25 6.97998C20.4926 6.97998 21.5 5.97262 21.5 4.72998C21.5 3.48734 20.4926 2.47998 19.25 2.47998C18.0074 2.47998 17 3.48734 17 4.72998C17 5.97262 18.0074 6.97998 19.25 6.97998Z" stroke="#333333" stroke-width="1.5" stroke-miterlimit="10" stroke-linecap="round" stroke-linejoin="round"/>
<path d="M23 14.5062V13.0474C23 11.5886 21.9091 10.48 20.6 10.48H17" stroke="#333333" stroke-width="1.5" stroke-miterlimit="10" stroke-linecap="round" stroke-linejoin="round"/>
</svg>
