<svg width="30" height="31" viewBox="0 0 30 31" fill="none" xmlns="http://www.w3.org/2000/svg">
<path d="M25.4766 14.0938L23.4375 12.0561V7.0625C23.4375 6.28906 22.8047 5.65625 22.0312 5.65625H20.625C19.8516 5.65625 19.2188 6.28906 19.2188 7.0625V7.84016L16.4062 5.03047C16.0223 4.66766 15.6708 4.25 15 4.25C14.3292 4.25 13.9777 4.66766 13.5938 5.03047L4.52344 14.0938C4.08469 14.5508 3.75 14.8841 3.75 15.5C3.75 16.2917 4.3575 16.9062 5.15625 16.9062H6.5625V25.3438C6.5625 26.1172 7.19531 26.75 7.96875 26.75H10.7812C11.5579 26.75 12.1875 26.1204 12.1875 25.3438V19.7188C12.1875 18.9453 12.8203 18.3125 13.5938 18.3125H16.4062C17.1797 18.3125 17.8125 18.9453 17.8125 19.7188V25.3438C17.8125 26.1204 17.739 26.75 18.5156 26.75H22.0312C22.8047 26.75 23.4375 26.1172 23.4375 25.3438V16.9062H24.8438C25.6425 16.9062 26.25 16.2917 26.25 15.5C26.25 14.8841 25.9153 14.5508 25.4766 14.0938Z" stroke="black" stroke-width="2" stroke-linejoin="round"/>
</svg>
