<svg width="24" height="24" viewBox="0 0 24 24" fill="none" xmlns="http://www.w3.org/2000/svg">
<path d="M17.7 11.1542V7.47264C17.7 4.48756 15.2 2 12.2 2C9.2 2 6.8 4.38806 6.7 7.37313V11.0547M12.2 15.0348C12.4 15.0348 12.7 15.2338 12.7 15.5323C12.7 15.8308 12.5 16.0299 12.2 16.0299C11.9 16.0299 11.7 15.8308 11.7 15.5323C11.7 15.2338 12 15.0348 12.2 15.0348ZM12.2 15.0348V17.9204M4 13.8408V19.3134C4 20.806 5.2 22 6.7 22H17.6C19.1 22 20.3 20.806 20.3 19.3134V13.8408C20.3 12.3483 19.1 11.1542 17.6 11.1542H6.7C5.2 11.1542 4 12.3483 4 13.8408Z" stroke="#333333" stroke-width="1.5" stroke-miterlimit="10" stroke-linecap="round" stroke-linejoin="round"/>
</svg>
