<?xml version="1.0" encoding="UTF-8" standalone="no"?>
<!-- Created with Inkscape (http://www.inkscape.org/) -->

<svg
   version="1.1"
   id="svg2"
   width="256"
   height="256"
   viewBox="0 0 256 256"
   sodipodi:docname="nokiaAmp.svg"
   inkscape:version="1.3.2 (091e20e, 2023-11-25, custom)"
   xmlns:inkscape="http://www.inkscape.org/namespaces/inkscape"
   xmlns:sodipodi="http://sodipodi.sourceforge.net/DTD/sodipodi-0.dtd"
   xmlns="http://www.w3.org/2000/svg"
   xmlns:svg="http://www.w3.org/2000/svg">
  <defs
     id="defs6">
    <clipPath
       clipPathUnits="userSpaceOnUse"
       id="clipPath16">
      <path
         d="M 0,192 H 192 V 0 H 0 Z"
         id="path14" />
    </clipPath>
  </defs>
  <sodipodi:namedview
     id="namedview4"
     pagecolor="#ffffff"
     bordercolor="#000000"
     borderopacity="0.25"
     inkscape:showpageshadow="2"
     inkscape:pageopacity="0.0"
     inkscape:pagecheckerboard="0"
     inkscape:deskcolor="#d1d1d1"
     inkscape:zoom="2.2898106"
     inkscape:cx="104.37544"
     inkscape:cy="124.02773"
     inkscape:window-width="1920"
     inkscape:window-height="1106"
     inkscape:window-x="1909"
     inkscape:window-y="-11"
     inkscape:window-maximized="1"
     inkscape:current-layer="g8" />
  <g
     id="g8"
     inkscape:groupmode="layer"
     inkscape:label="Nokia_Master_16x16_Amplifier_N_Bright blue_cmyk"
     transform="matrix(1.3333333,0,0,-1.3333333,0,256)">
    <g
       id="g82"
       transform="translate(3.7336548e-6,191.9997)">
      <path
         d="M 0,0 V -192 H 29.67 V -64.999 L 192,-192 v 37.378 z"
         style="fill:#2269bc;fill-opacity:1;fill-rule:nonzero;stroke:none"
         id="path84" />
    </g>
    <path
       style="fill:#0000ff;fill-rule:evenodd;stroke:#fefefe;stroke-width:0.437405;paint-order:markers stroke fill"
       d="M 0,128.14015 C 0,57.983324 0.15949559,0.64779739 0.35443469,0.72786225 0.54937373,0.80792708 58.130555,47.123884 128.31262,103.65221 l 127.60374,102.77877 v 24.41515 c 0,13.42834 -0.097,24.41516 -0.21561,24.41516 -0.11859,0 -48.59036,-37.8479 -107.71506,-84.10645 C 88.860991,124.89629 40.22036,86.94637 39.895399,86.82167 c -0.495386,-0.190099 -0.590838,13.43295 -0.590838,84.3248 V 255.698 H 19.65228 0 Z"
       id="path1"
       transform="matrix(0.75000002,0,0,-0.75000002,0,192)" />
  </g>
</svg>
