<svg width="24" height="24" viewBox="0 0 24 24" fill="none" xmlns="http://www.w3.org/2000/svg">
<path d="M18.7 11.0452V15.8693C18.7 19.0854 16.1 22 12.9 22C9.7 22 7.1 19.1859 7.1 15.8693V11.0452M9.2 2H11.2V6.82412C11.2 9.03517 9.4 10.9447 7.1 10.9447C4.9 10.9447 3 9.13568 3 6.82412V2H5M18.7 10.8442C20.1 10.8442 21.3 9.63819 21.3 8.23115C21.3 6.82412 20.1 5.61809 18.7 5.61809C17.3 5.61809 16.1 6.72362 16.1 8.23115C16.2 9.63819 17.3 10.8442 18.7 10.8442Z" stroke="#333333" stroke-width="1.5" stroke-miterlimit="10" stroke-linecap="round" stroke-linejoin="round"/>
</svg>
