<svg width="24" height="24" viewBox="0 0 24 24" fill="none" xmlns="http://www.w3.org/2000/svg">
<path d="M9 14H4C3.5 14 3 14.5 3 15V20C3 20.5 3.5 21 4 21H9C9.6 21 10 20.5 10 20V15C10 14.4 9.5 14 9 14ZM20 14H15C14.5 14 14 14.5 14 15V20C14 20.5 14.5 21 15 21H20C20.6 21 21 20.5 21 20V15C21 14.4 20.5 14 20 14ZM9 3H4C3.5 3 3 3.5 3 4V9C3 9.5 3.5 10 4 10H9C9.6 10 10 9.5 10 9V4C10 3.4 9.5 3 9 3ZM20 3H15C14.5 3 14 3.5 14 4V9C14 9.5 14.5 10 15 10H20C20.6 10 21 9.5 21 9V4C21 3.4 20.5 3 20 3Z" stroke="#333333" stroke-width="1.5" stroke-miterlimit="10" stroke-linecap="round" stroke-linejoin="round"/>
</svg>
