<svg width="24" height="24" viewBox="0 0 24 24" fill="none" xmlns="http://www.w3.org/2000/svg">
<path d="M21.8501 11.4499C22.05 11.7499 22.05 12.2499 21.8501 12.5499C20.8509 14.0499 17.6534 18.7499 11.9579 18.8499C6.26234 18.8499 3.16477 14.2499 2.06563 12.5499C1.96571 12.2499 1.96571 11.7499 2.16556 11.4499C3.16477 9.8499 6.36226 5.1499 12.0578 5.1499C17.7533 5.2499 20.8509 9.8499 21.8501 11.4499ZM12.0578 15.6499C14.0562 15.6499 15.655 14.0499 15.655 12.0499C15.655 10.0499 14.0562 8.4499 12.0578 8.4499C10.0594 8.4499 8.3607 10.0499 8.3607 12.0499C8.3607 14.0499 9.95944 15.6499 12.0578 15.6499Z" stroke="#333333" stroke-width="1.5" stroke-miterlimit="10" stroke-linecap="round" stroke-linejoin="round"/>
</svg>
