<svg width="24" height="24" viewBox="0 0 24 24" fill="none" xmlns="http://www.w3.org/2000/svg">
<path d="M7.11886 9.27273H10.6688V13.8555L11.3788 14.7522C13.103 16.4458 13.103 19.0361 11.3788 20.7298C9.65452 22.4234 7.01743 22.4234 5.29319 20.7298C3.56894 19.0361 3.56894 16.4458 5.29319 14.7522L6.20602 13.8555V4.29141C6.20602 3.09589 7.22029 2.09963 8.4374 2.09963C9.65452 2.09963 10.6688 3.09589 10.6688 4.29141V5.68618M17.6672 6.58281C16.3487 6.58281 15.3344 5.58655 15.3344 4.29141C15.3344 3.09589 16.3487 2 17.6672 2C18.9857 2 20 2.99626 20 4.29141C19.8986 5.48692 18.8843 6.58281 17.6672 6.58281Z" stroke="#333333" stroke-width="1.5" stroke-miterlimit="10" stroke-linecap="round" stroke-linejoin="round"/>
</svg>
