<svg width="34" height="34" viewBox="0 0 34 34" fill="none" xmlns="http://www.w3.org/2000/svg">
<path d="M18.7074 10.7251C18.3538 10.3008 17.7233 10.2435 17.299 10.597C16.8747 10.9506 16.8174 11.5811 17.171 12.0054L18.7074 10.7251ZM22.6348 17L23.4031 17.6402C23.7121 17.2694 23.7121 16.7307 23.4031 16.3599L22.6348 17ZM17.171 21.9947C16.8174 22.4189 16.8747 23.0495 17.299 23.4031C17.7233 23.7566 18.3538 23.6993 18.7074 23.275L17.171 21.9947ZM11.3652 16C10.813 16 10.3652 16.4478 10.3652 17C10.3652 17.5523 10.813 18 11.3652 18L11.3652 16ZM17.171 12.0054L21.8666 17.6402L23.4031 16.3599L18.7074 10.7251L17.171 12.0054ZM21.8666 16.3599L17.171 21.9947L18.7074 23.275L23.4031 17.6402L21.8666 16.3599ZM22.6348 16L11.3652 16L11.3652 18L22.6348 18V16ZM25.3085 8.6915C29.8972 13.2802 29.8972 20.7198 25.3085 25.3085L26.7227 26.7227C32.0924 21.353 32.0924 12.647 26.7227 7.27728L25.3085 8.6915ZM25.3085 25.3085C20.7198 29.8972 13.2802 29.8972 8.6915 25.3085L7.27728 26.7227C12.647 32.0924 21.353 32.0924 26.7227 26.7227L25.3085 25.3085ZM8.6915 25.3085C4.10283 20.7198 4.10283 13.2802 8.6915 8.6915L7.27728 7.27728C1.90757 12.647 1.90757 21.353 7.27728 26.7227L8.6915 25.3085ZM8.6915 8.6915C13.2802 4.10283 20.7198 4.10283 25.3085 8.6915L26.7227 7.27728C21.353 1.90757 12.647 1.90757 7.27728 7.27728L8.6915 8.6915Z" fill="white"/>
</svg>
