<svg width="24" height="24" viewBox="0 0 24 24" fill="none" xmlns="http://www.w3.org/2000/svg">
<path d="M6.59998 9.71997C8.04574 8.29821 9.9923 7.50146 12.02 7.50146C14.0477 7.50146 15.9942 8.29821 17.4399 9.71997M9.31006 12.4301C10.0323 11.718 11.0058 11.3187 12.02 11.3187C13.0343 11.3187 14.0077 11.718 14.73 12.4301M4.80005 21H19.2C19.6765 20.9974 20.1329 20.8068 20.4698 20.4698C20.8068 20.1329 20.9974 19.6765 21 19.2V4.80005C20.9974 4.32347 20.8068 3.86715 20.4698 3.53015C20.1329 3.19315 19.6765 3.00263 19.2 3H4.80005C4.32347 3.00263 3.86715 3.19315 3.53015 3.53015C3.19315 3.86715 3.00263 4.32347 3 4.80005V19.2C3.00263 19.6765 3.19315 20.1329 3.53015 20.4698C3.86715 20.8068 4.32347 20.9974 4.80005 21ZM12 15.25C12.0989 15.25 12.1956 15.2793 12.2778 15.3342C12.3601 15.3892 12.4241 15.4674 12.4619 15.5587C12.4998 15.6501 12.5096 15.7505 12.4904 15.8475C12.4711 15.9445 12.4234 16.0336 12.3535 16.1035C12.2836 16.1734 12.1945 16.2211 12.0975 16.2404C12.0005 16.2596 11.9001 16.2498 11.8087 16.2119C11.7174 16.1741 11.6392 16.1101 11.5842 16.0278C11.5293 15.9456 11.5 15.8489 11.5 15.75C11.5 15.6174 11.5527 15.4903 11.6465 15.3965C11.7403 15.3027 11.8674 15.25 12 15.25Z" stroke="#333333" stroke-width="1.5" stroke-linecap="round" stroke-linejoin="round"/>
</svg>
