<svg width="30" height="30" viewBox="0 0 30 30" fill="none" xmlns="http://www.w3.org/2000/svg">
<path fill-rule="evenodd" clip-rule="evenodd" d="M4.75818 7.758C5.88335 6.63317 7.4092 6.00128 9.00018 6.00128C10.5912 6.00128 12.117 6.63317 13.2422 7.758L15.0002 9.5145L16.7582 7.758C17.3117 7.18494 17.9737 6.72784 18.7058 6.41339C19.4378 6.09894 20.2251 5.93342 21.0218 5.9265C21.8184 5.91957 22.6085 6.07138 23.3459 6.37307C24.0833 6.67475 24.7532 7.12027 25.3166 7.68363C25.8799 8.24698 26.3254 8.9169 26.6271 9.65427C26.9288 10.3917 27.0806 11.1817 27.0737 11.9784C27.0668 12.7751 26.9012 13.5624 26.5868 14.2944C26.2723 15.0264 25.8152 15.6885 25.2422 16.242L15.0002 26.4855L4.75818 16.242C3.63336 15.1168 3.00146 13.591 3.00146 12C3.00146 10.409 3.63336 8.88316 4.75818 7.758V7.758Z" stroke="black" stroke-width="2" stroke-linejoin="round"/>
</svg>
