<svg width="60" height="60" viewBox="0 0 60 60" fill="none" xmlns="http://www.w3.org/2000/svg">
<path d="M46.1185 45.6347L45.6101 44.7736L45.6101 44.7736L46.1185 45.6347ZM47.3474 43.4819L46.3474 43.4819L46.3474 43.4819L47.3474 43.4819ZM27.414 53.5088L26.8775 54.3527L26.8775 54.3527L27.414 53.5088ZM32.6386 53.5945L33.147 54.4556L32.6386 53.5945ZM4.76024 20.342L4.24831 19.4829L4.76024 20.342ZM4.76024 22.4895L4.24831 23.3486L4.24831 23.3486L4.76024 22.4895ZM31.2798 36.7682L31.7918 37.6272L31.2798 36.7682ZM28.7202 36.7682L29.2321 35.9092L29.2321 35.9092L28.7202 36.7682ZM55.2398 20.342L55.7517 19.4829L55.2398 20.342ZM55.2398 22.4895L54.7279 21.6305L54.7279 21.6305L55.2398 22.4895ZM15.044 45.6457L15.5804 44.8017L15.5804 44.8017L15.044 45.6457ZM31.2798 6.06331L30.7679 6.92233L30.7679 6.92233L31.2798 6.06331ZM28.7202 6.06331L29.2321 6.92233L29.2321 6.92233L28.7202 6.06331ZM56.5 21.3741C56.5 20.8219 56.0523 20.3741 55.5 20.3741C54.9477 20.3741 54.5 20.8219 54.5 21.3741H56.5ZM54.5 34.8741C54.5 35.4264 54.9477 35.8741 55.5 35.8741C56.0523 35.8741 56.5 35.4264 56.5 34.8741H54.5ZM30.7679 6.92233L54.7279 21.201L55.7517 19.4829L31.7918 5.20428L30.7679 6.92233ZM54.7279 21.6305L30.7679 35.9092L31.7918 37.6272L55.7517 23.3486L54.7279 21.6305ZM5.27216 21.201L29.2321 6.92233L28.2083 5.20428L4.24831 19.4829L5.27216 21.201ZM29.2321 35.9092L14.397 27.0684L13.3732 28.7864L28.2083 37.6272L29.2321 35.9092ZM14.397 27.0684L5.27217 21.6305L4.24831 23.3486L13.3731 28.7864L14.397 27.0684ZM12.8851 27.9274V43.5358H14.8851V27.9274H12.8851ZM14.5075 46.4896L26.8775 54.3527L27.9504 52.6648L15.5804 44.8017L14.5075 46.4896ZM33.147 54.4556L46.627 46.4957L45.6101 44.7736L32.1301 52.7334L33.147 54.4556ZM48.3474 43.4819L48.3474 27.9274L46.3474 27.9274L46.3474 43.4819L48.3474 43.4819ZM46.627 46.4957C47.6932 45.8662 48.3474 44.7201 48.3474 43.4819L46.3474 43.4819C46.3474 44.0126 46.067 44.5038 45.6101 44.7736L46.627 46.4957ZM26.8775 54.3527C28.7818 55.5631 31.2041 55.6029 33.147 54.4556L32.1301 52.7334C30.8348 53.4983 29.2199 53.4718 27.9504 52.6648L26.8775 54.3527ZM4.24831 19.4829C2.78409 20.3555 2.7841 22.476 4.24831 23.3486L5.27217 21.6305C5.10947 21.5336 5.10948 21.298 5.27216 21.201L4.24831 19.4829ZM30.7679 35.9092C30.2948 36.1911 29.7052 36.1911 29.2321 35.9092L28.2083 37.6272C29.3122 38.2851 30.6878 38.2851 31.7918 37.6272L30.7679 35.9092ZM54.7279 21.201C54.8905 21.298 54.8905 21.5336 54.7279 21.6305L55.7517 23.3486C57.2159 22.476 57.2159 20.3555 55.7517 19.4829L54.7279 21.201ZM12.8851 43.5358C12.8851 44.7331 13.4971 45.8473 14.5075 46.4896L15.5804 44.8017C15.1474 44.5265 14.8851 44.049 14.8851 43.5358H12.8851ZM31.7918 5.20428C30.6878 4.54641 29.3122 4.54641 28.2083 5.20428L29.2321 6.92233C29.7052 6.64039 30.2948 6.64039 30.7679 6.92233L31.7918 5.20428ZM54.5 21.3741V34.8741H56.5V21.3741H54.5Z" fill="white"/>
</svg>
