<svg width="22" height="22" viewBox="0 0 24 24" fill="none" xmlns="http://www.w3.org/2000/svg">
<path d="M13.5578 13.5C14.0603 14.5 14.0603 15.3 14.0603 16C14.0603 19.3 11.3467 22 8.03015 22C4.71357 22 2 19.3 2 16C2 12.7 4.71357 10 8.03015 10C8.73367 10 9.43719 10.1 10.0402 10.3H10.3417L12.5528 8.1L14.2613 7.9L14.3618 6.2L15.6683 4.9L17.1759 4.6L17.4774 3.1L18.5829 2L21.4975 2.1L22 5.1L13.5578 13.5ZM7.02513 17.7C6.62312 17.7 6.2211 17.4 6.2211 16.9C6.2211 16.4 6.52261 16.1 7.02513 16.1C7.52764 16.1 7.82914 16.4 7.82914 16.9C7.82914 17.4 7.42714 17.7 7.02513 17.7Z" stroke="#333333" stroke-width="1.5" stroke-miterlimit="10" stroke-linecap="round" stroke-linejoin="round"/>
</svg>
