<?xml version="1.0" encoding="utf-8"?>
<!-- Generator: Adobe Illustrator 26.5.0, SVG Export Plug-In . SVG Version: 6.00 Build 0)  -->
<svg version="1.1" id="Layer_1" xmlns="http://www.w3.org/2000/svg" xmlns:xlink="http://www.w3.org/1999/xlink" x="0px" y="0px"
	 viewBox="0 0 120 120" style="enable-background:new 0 0 120 120;" xml:space="preserve">
<style type="text/css">
	.st0{fill:none;}
	.st1{fill:none;stroke:#001135;stroke-width:5;stroke-linecap:round;stroke-linejoin:round;stroke-miterlimit:10;}
	.st2{fill:#001135;}
	.st3{fill:none;stroke:#001135;stroke-width:5;stroke-miterlimit:10;}
	.st4{fill:none;stroke:#001135;stroke-width:5;stroke-linecap:round;stroke-linejoin:round;}
	.st5{fill:#001135;stroke:#001135;stroke-width:5;stroke-linecap:round;stroke-linejoin:round;stroke-miterlimit:10;}
	.st6{fill:none;stroke:#001135;stroke-width:4.2333;stroke-linecap:round;stroke-linejoin:round;stroke-miterlimit:10;}
	.st7{fill:none;stroke:#001135;stroke-width:5;stroke-linecap:round;stroke-miterlimit:10;}
	.st8{fill:#001135;stroke:#001135;stroke-width:5;stroke-miterlimit:10;}
	.st9{fill:#001135;stroke:#001135;stroke-width:5;}
	.st10{fill:none;stroke:#001135;stroke-width:5;}
	.st11{fill:#262626;stroke:#001135;stroke-width:4.2333;}
	.st12{fill-rule:evenodd;clip-rule:evenodd;fill:none;stroke:#001135;stroke-width:5;stroke-miterlimit:10;}
	.st13{fill-rule:evenodd;clip-rule:evenodd;fill:#001135;stroke:#001135;stroke-width:5;}
	.st14{fill:#FFFFFF;stroke:#001135;stroke-width:5;stroke-miterlimit:10;}
	.st15{fill:none;stroke:#001135;stroke-width:4.2333;stroke-linecap:round;stroke-linejoin:round;}
	.st16{fill:none;stroke:#001135;stroke-width:5;stroke-linecap:round;}
	.st17{fill:#001135;stroke:#001135;stroke-miterlimit:10;}
	.st18{fill:#262626;stroke:#001135;stroke-width:5;stroke-miterlimit:10;}
	.st19{fill:#FFFFFF;stroke:#001135;stroke-width:5;stroke-linecap:round;stroke-linejoin:round;stroke-miterlimit:10;}
	.st20{fill:#001135;stroke:#001135;stroke-width:5;stroke-linecap:round;stroke-linejoin:round;}
</style>
<rect x="0" y="0" class="st0" width="120" height="120"/>
<path class="st1" d="M99.3,37c1.9,7.2,0,15.4-5.8,21.2C88,63.7,80.2,65.8,73,63.9c-1.9-0.4-3.9,0-5.4,1.4L36.3,96.7
	c-3.7,3.7-9.9,3.7-13.6,0s-3.7-9.9,0-13.6l31.9-31.3c1.2-1.4,1.9-3.3,1.4-5.1c-1.2-7,0.8-14.2,6.2-19.6c5.4-5.6,12.8-7.4,19.8-6.2
	c1.4,0.2,2.1,2.1,1,3.3L75.3,32c-0.4,0.4-0.6,0.8-0.6,1.4l2.3,7.8c0,0.8,0.8,1.6,1.6,1.6l7.8,2.3c0.4,0,1-0.2,1.4-0.6l8.4-8.4
	C97.3,35.1,98.9,35.5,99.3,37z"/>
</svg>
