<svg width="60" height="60" viewBox="0 0 60 60" fill="none" xmlns="http://www.w3.org/2000/svg">
<path d="M38.9986 32.0236L38.453 31.1855L38.4391 31.1946L38.4254 31.2041L38.9986 32.0236ZM38.9986 28.5831L38.4056 29.3884L38.4502 29.4212L38.4982 29.4489L38.9986 28.5831ZM25.2101 18.4299L25.803 17.6247L25.7748 17.6039L25.7452 17.5851L25.2101 18.4299ZM22.3194 19.9464L23.3194 19.9435L23.3194 19.9348L23.3192 19.926L22.3194 19.9464ZM22.3772 39.8907L21.3772 39.8936L21.3773 39.9219L21.379 39.9501L22.3772 39.8907ZM25.3739 41.5527L25.8581 42.4277L25.904 42.4023L25.947 42.3722L25.3739 41.5527ZM15 7H45V5H15V7ZM53 15V45H55V15H53ZM45 53H15V55H45V53ZM7 45V15H5V45H7ZM15 53C10.5817 53 7 49.4183 7 45H5C5 50.5228 9.47715 55 15 55V53ZM53 45C53 49.4183 49.4183 53 45 53V55C50.5228 55 55 50.5228 55 45H53ZM45 7C49.4183 7 53 10.5817 53 15H55C55 9.47715 50.5228 5 45 5V7ZM15 5C9.47715 5 5 9.47715 5 15H7C7 10.5817 10.5817 7 15 7V5ZM39.5441 32.8616C40.5075 32.2345 41.3202 31.3663 41.3186 30.2523C41.3171 29.1158 40.4754 28.2816 39.4989 27.7173L38.4982 29.4489C39.2787 29.9 39.3186 30.2121 39.3187 30.255C39.3187 30.3203 39.2529 30.6648 38.453 31.1855L39.5441 32.8616ZM39.5915 27.7779L25.803 17.6247L24.6171 19.2352L38.4056 29.3884L39.5915 27.7779ZM25.7452 17.5851C24.8458 17.0154 23.7455 16.7888 22.7912 17.2344C21.7817 17.7058 21.2948 18.7533 21.3196 19.9668L23.3192 19.926C23.3054 19.2512 23.5492 19.0877 23.6374 19.0466C23.7807 18.9797 24.145 18.939 24.6749 19.2747L25.7452 17.5851ZM21.3194 19.9493L21.3772 39.8936L23.3772 39.8878L23.3194 19.9435L21.3194 19.9493ZM21.379 39.9501C21.4474 41.0994 21.8258 42.2032 22.8082 42.7278C23.7803 43.247 24.8987 42.9586 25.8581 42.4277L24.8896 40.6778C24.1371 41.0943 23.8182 40.9999 23.7504 40.9637C23.693 40.933 23.4291 40.732 23.3754 39.8313L21.379 39.9501ZM25.947 42.3722L39.5717 32.843L38.4254 31.2041L24.8007 40.7333L25.947 42.3722Z" fill="white"/>
</svg>
