<svg width="40" height="40" viewBox="0 0 24 24" fill="none" xmlns="http://www.w3.org/2000/svg">
<path fill-rule="evenodd" clip-rule="evenodd" d="M10.8958 4.07178C11.3692 3.20302 12.6164 3.20254 13.0905 4.07094L21.0942 18.731C21.549 19.564 20.9461 20.58 19.9971 20.58H4.00425C3.05563 20.58 2.45272 19.5648 2.90665 18.7319L10.8958 4.07178ZM14.4071 3.35215C13.3641 1.44168 10.6202 1.44273 9.57868 3.354L1.58953 18.0141C0.590892 19.8466 1.9173 22.08 4.00425 22.08H19.9971C22.085 22.08 23.4113 19.8448 22.4108 18.0123L14.4071 3.35215ZM10.75 17.75C10.75 17.0596 11.3096 16.5 12 16.5C12.6904 16.5 13.25 17.0596 13.25 17.75C13.25 18.4404 12.6904 19 12 19C11.3096 19 10.75 18.4404 10.75 17.75ZM12.7522 8.54398C12.7522 8.12976 12.4164 7.79398 12.0022 7.79398C11.588 7.79398 11.2522 8.12976 11.2522 8.54398V14.2267C11.2522 14.6409 11.588 14.9767 12.0022 14.9767C12.4164 14.9767 12.7522 14.6409 12.7522 14.2267V8.54398Z" fill="#333333"/>
</svg>
